<svg xmlns="http://www.w3.org/2000/svg" viewBox="0 0 54.59 21.03"><defs><style>.cls-1{fill:#15499b;}</style></defs><title>Zasób 14</title><g id="Warstwa_2" data-name="Warstwa 2"><g id="Warstwa_1-2" data-name="Warstwa 1"><path class="cls-1" d="M6.41,21A6.41,6.41,0,0,1,0,14.63C0,12.12,3.15,4.94,5,.88A1.51,1.51,0,0,1,6.41,0h0A1.49,1.49,0,0,1,7.78.88c1.88,4.06,5,11.23,5,13.75A6.41,6.41,0,0,1,6.41,21Zm0-18.36C3.68,8.66,2,13.19,2,14.63a4.41,4.41,0,0,0,8.82,0C10.82,13.19,9.14,8.66,6.41,2.67Z"/><path class="cls-1" d="M42.14,21a1.23,1.23,0,0,1-.68-.21,1.19,1.19,0,0,1-.39-1.52l3.53-7.2H42a1.19,1.19,0,0,1-1.08-1.72L45.64.67A1.19,1.19,0,0,1,46.72,0h4.12a1.18,1.18,0,0,1,1,.57,1.2,1.2,0,0,1,.06,1.16l-2.44,5h3.91a1.2,1.2,0,0,1,.87,2L43,20.66A1.25,1.25,0,0,1,42.14,21Zm1.1-10.93h2.64a1.23,1.23,0,0,1,1,.57A1.2,1.2,0,0,1,47,11.83l-1.77,3.6,6.35-6.72H48.19A1.19,1.19,0,0,1,47.12,7l2.44-5H47.22Zm5.67-2.25h0Zm3.9-.5h0Z"/><path class="cls-1" d="M37.64,8l-.7-.7a14.57,14.57,0,0,0-20.62,0L15.61,8l5.24,5.23h0L26.64,19l5.78-5.79h0ZM22.31,11.89l-1.25-1.26a9,9,0,0,1,11.14,0L31,11.87a7.26,7.26,0,0,0-4.31-1.45A7.16,7.16,0,0,0,22.31,11.89ZM26.64,5a12.59,12.59,0,0,1,8.15,3L33.63,9.2a11.06,11.06,0,0,0-7-2.51,10.93,10.93,0,0,0-7,2.52L18.46,8A12.52,12.52,0,0,1,26.64,5ZM23.75,13.3a5.31,5.31,0,0,1,5.78,0l-2.89,2.89Z"/></g></g></svg>