<svg xmlns="http://www.w3.org/2000/svg" viewBox="0 0 52.29 35.64"><defs><style>.cls-1{fill:#15499b;}</style></defs><title>Zasób 11</title><g id="Warstwa_2" data-name="Warstwa 2"><g id="Warstwa_1-2" data-name="Warstwa 1"><path class="cls-1" d="M33,0,0,12.79v6.66H2.77v9.3H0v6.89H44.24V9.29H33Zm-10,19.47v9.28h-5.5V19.47Zm-18.78,0H16.05v9.28H4.27ZM31.53,34.14H1.5V30.25H24.55V18H1.5V13.82l30-11.63v32Zm4,0V22.78h4.34V34.14Zm7.25-23.35V34.14H41.33V21.28H34V34.14H33V10.79Z"/><path class="cls-1" d="M48.24,1.24a4,4,0,0,0-4,4.05,4,4,0,0,0,1.58,3.19v8.28h2.46A2.46,2.46,0,0,0,50.7,14.3V8.48a4,4,0,0,0,1.59-3.19A4.05,4.05,0,0,0,48.24,1.24Zm1.32,6.21-.36.22V14.3a1,1,0,0,1-1,1h-1V7.67l-.36-.22a2.55,2.55,0,1,1,2.64,0Z"/><circle class="cls-1" cx="48.24" cy="5.39" r="1.1"/></g></g></svg>