<svg xmlns="http://www.w3.org/2000/svg" viewBox="0 0 35.79 38.86"><defs><style>.cls-1{fill:#15499b;}</style></defs><title>Zasób 13</title><g id="Warstwa_2" data-name="Warstwa 2"><g id="Warstwa_1-2" data-name="Warstwa 1"><path class="cls-1" d="M35.79,9.76h-2V26.21l-1.37-.79V7.8h-2V24.26L30,24h0l-1-.57V5.85H27V22.31l-.38-.22h0l-1-.58V3.9h-2V20.36l-.38-.22h0l-1-.58V2h-2V18.41l-1.38-.8V0h-2V17.61l-1.38.8V2h-2V19.56l-1,.58h0l-.38.22V3.9h-2V21.51l-1,.58h0l-.38.22V5.85h-2V23.47l-1,.57h0l-.28.16V7.8h-2V25.36L2.38,26h0L2,26.21V9.76H0V28.52L2.38,29.9h0l3.38,2h0L9.14,33.8h0l3.38,2h0l5.38,3.11,5.38-3.11h0l3.38-2h0L30,31.85h0l3.38-2h0l2.38-1.38ZM17.9,32.64l-.69-.39-.69-.4.69-.4.69-.4.69.4.69.4-.69.4ZM9.76,28l.69-.4.69-.4.69.4.69.4-.69.39-.69.4-.69-.4Zm8.14-4.7.69.39.69.4-.69.4-.69.4-.69-.4-.69-.4.69-.4ZM22.66,26l-.69.4-.69.4-.69-.4L19.9,26l.69-.39.69-.4.69.4ZM17.9,28.74l-.69-.4L16.52,28l.69-.4.69-.4.69.4.69.4-.69.39ZM14.52,25.2l.69.4.69.39-.69.4-.69.4-.69-.4-.69-.4.69-.39Zm-1.38,4.7.69-.4.69-.4.69.4.69.4-.69.39-.69.4-.69-.4Zm8.14.79-.69-.4-.69-.39.69-.4.69-.4.69.4.69.4-.69.39Zm3.38-2-.69-.4L23.28,28l.69-.4.69-.4.69.4L26,28l-.69.39ZM29.42,26l-.69.4-.69.4-.69-.4-.69-.4.69-.39.69-.4ZM26,24l-.69.4-.69.4-.69-.4-.69-.4.69-.4.69-.39Zm-3.38-1.95-.69.4-.69.4-.69-.4-.69-.4.69-.4.69-.4ZM17.9,19.34l1.38.8-.69.4-.69.4-.69-.4-.69-.4Zm-2.69,2.35.69.4-.69.4-.69.4-.69-.4-.69-.4,1.38-.8Zm-3.38,1.95.69.4-.69.4-.69.4-.69-.4L9.76,24l1.38-.79Zm-3.38,2,.69.39-.69.4-.69.4-.69-.4L6.38,26l1.38-.79ZM3,28l1.38-.8.69.4.69.4-.69.39-.69.4ZM6.38,29.9l.69-.4.69-.4.69.4.69.4-.69.39-.69.4Zm3.38,2,.69-.4.69-.4.69.4.69.4-.69.4-.69.39Zm3.38,1.95.69-.4.69-.4.69.4.69.4-.69.4-.69.4Zm4.76,2.75-1.38-.8.69-.4.69-.4.69.4.69.4Zm2.69-2.35-.69-.4.69-.4.69-.4.69.4.69.4-1.38.8Zm3.38-2-.69-.4.69-.4.69-.4.69.4.69.4-1.38.79Zm3.38-2-.69-.39.69-.4.69-.4.69.4.69.4L28,30.69Zm3.38-1.95L30,28l.69-.4.69-.4,1.37.8-1.37.79Z"/></g></g></svg>