<svg xmlns="http://www.w3.org/2000/svg" viewBox="0 0 89.91 59.25"><defs><style>.cls-1{fill:#15499b;}</style></defs><title>Zasób 3</title><g id="Warstwa_2" data-name="Warstwa 2"><g id="Warstwa_1-2" data-name="Warstwa 1"><path class="cls-1" d="M82.22,15.49V14.34A6.46,6.46,0,0,0,84.89,9.1a6.54,6.54,0,1,0-13.07,0,6.45,6.45,0,0,0,2.66,5.24v1.15H55V0L0,21.29V32H3.33V48.19H0V59.25H89.91V15.49ZM73.82,9.1A4.54,4.54,0,1,1,80.7,13l-.48.29v11a1.87,1.87,0,0,1-1.87,1.87H76.48V13.25L76,13A4.5,4.5,0,0,1,73.82,9.1ZM27,32.08V48.19H17.7V32.08Zm2,0h9.78V48.19H29Zm-23.63,0H15.7V48.19H5.33ZM2,57.25V50.19H40.74V30H2V22.67L53,2.92V15.49h0V57.25Zm60.46,0V37.64h7.81V57.25Zm25.45,0H72.27V35.64H60.46V57.25H55V17.49h19.5V28.11h3.87a3.87,3.87,0,0,0,3.87-3.87V17.49h5.69Z"/></g></g></svg>