<svg xmlns="http://www.w3.org/2000/svg" viewBox="0 0 89.19 81.02"><defs><style>.cls-1{fill:#15499b;}</style></defs><title>Zasób 2</title><g id="Warstwa_2" data-name="Warstwa 2"><g id="Warstwa_1-2" data-name="Warstwa 1"><path class="cls-1" d="M88.87,28.53,27.94,0h0a.45.45,0,0,0-.11,0l-.07,0-.06,0a.41.41,0,0,0-.19.16h0L.13,40.53A.87.87,0,0,0,0,41v2.89a.43.43,0,0,0,0,0,1,1,0,0,0,0,.26l0,.07a.51.51,0,0,0,.17.21s0,0,0,0h0l.11.05,6.39,1V60.76L.44,61.1h0l-.07,0-.12.07,0,0s0,0,0,0a.46.46,0,0,0-.09.15s0,.05,0,.08a.54.54,0,0,0,0,.22s0,0,0,0V64.3a.7.7,0,0,0,.27.6L24.05,81h0a.33.33,0,0,0,.19.06h0l57.89-7.36,3.36,1h.15l3.1-.61a.62.62,0,0,0,.4-.66V29.16A.68.68,0,0,0,88.87,28.53ZM82.2,35,42.37,19.34a.36.36,0,0,0-.33.05L7.17,44.3l-5.6-.9L27.9,10.83,84,34.24ZM24.31,72.32l-21.24-10,4.15-.22,31.29,9.39Zm17.48-51V34.88L12.65,47.19a.36.36,0,0,0-.17.32V62.29L7.72,60.86V45.39L41.83,21A.92.92,0,0,0,41.79,21.31ZM34.67,69V47.27l1.89-.36V69.52Zm-.46-30.18v7.92l-7.76,1.5V42.05ZM26,48.28l-2.56.5V43.33L26,42.25Zm-3,.59-3.4.66V45.1a.42.42,0,0,0,0-.12L23,43.52Zm-3.86.75-3.57.69V46.66l3.57-1.5Zm-4,.78-2.14.41V47.76l2.14-.9Zm-2.14,1.09,2.14-.42v12l-2.14-.64Zm2.6-.51,3.57-.69v14l-3.57-1.07Zm4-.78,3.4-.66v15.9l-3.4-1Zm3.86-.75L26,49V66.34l-2.56-.77Zm3-.58,7.76-1.51V68.81l-7.76-2.33Zm8.22-2.27v-8h0l1.89-.8v8.45ZM37,69.66V46.82l4.77-.93v25.2Zm4.77-24.44L37,46.15V37.58l4.77-2Zm.92-9.89,2.49.31V71.06l-2.49.15Zm3,.37,8,1V70.55l-8,.48Zm8.26.37-8.31-1c0-.09-.1-.16-.18-.16a.2.2,0,0,0-.17.11l-2.56-.32V21.31a.78.78,0,0,0-.18-.52l39.22,15.4V68.85L54.14,70.52V36.41A.32.32,0,0,0,53.93,36.07Zm-53,5.2,26.41-39V9.78L.92,42.45Zm0,21.41,22.87,10.8v5.83L.92,63.87Zm81.25,9.65-57.46,7.3v-6l17.53-1.06s0,0,0,0l39.94-2.41c.24,0,.44-.31.44-.67V36.18l2.5-1.06v38l-2.87-.81A.2.2,0,0,0,82.17,72.33Zm6.1.44-2.18.42v-39a.68.68,0,0,0,0-.14v0h0a1.43,1.43,0,0,0-.08-.22l0,0-.08-.1-.06,0-.06,0-57.49-24v-8l60,28.07Z"/></g></g></svg>