<svg xmlns="http://www.w3.org/2000/svg" viewBox="0 0 48.67 83.19"><defs><style>.cls-1{fill:#15499b;}</style></defs><title>Zasób 6</title><g id="Warstwa_2" data-name="Warstwa 2"><g id="Warstwa_1-2" data-name="Warstwa 1"><path class="cls-1" d="M44.29,12H39.67V7.16h8v-2h-10V12H34.52V3.87A1.87,1.87,0,0,1,36.39,2H47.67V0H36.39a3.88,3.88,0,0,0-3.87,3.87V12H4.37A4.38,4.38,0,0,0,0,16.41V62.06a4.37,4.37,0,0,0,4.37,4.37h3V83.19h2V66.43h3.16V83.19h2V66.43h4.41V83.19h2V66.43h3.16V83.19h2V66.43h18.2a4.38,4.38,0,0,0,4.38-4.37V16.41A4.39,4.39,0,0,0,44.29,12Zm2.38,50a2.38,2.38,0,0,1-2.38,2.37H4.37A2.37,2.37,0,0,1,2,62.06V16.41A2.38,2.38,0,0,1,4.37,14H44.29a2.39,2.39,0,0,1,2.38,2.38Z"/><path class="cls-1" d="M7.36,52.69H26.09V25.78H7.36Zm2-24.91H24.09V50.69H9.36Z"/></g></g></svg>