<svg xmlns="http://www.w3.org/2000/svg" viewBox="0 0 88.09 65.77"><defs><style>.cls-1{fill:#15499b;}</style></defs><title>Zasób 9</title><g id="Warstwa_2" data-name="Warstwa 2"><g id="Warstwa_1-2" data-name="Warstwa 1"><path class="cls-1" d="M63.76,37.12H88v-2H63.76V19H88V17H63.76V11.1h0c0-.09,0-.17,0-.26-.1-2.95-2-5.67-5.25-7.67-7-4.3-19.08-4.21-26.81.18-4.08,2.34-6.37,5.48-6.45,8.85,0,.12,0,.23,0,.35h-.05V17H.91v2H25.22v16.1H.91v2H25.22V43h1l-1,0c.12,2.92,2,5.62,5.24,7.61a22.78,22.78,0,0,0,8.82,2.89V65.77h2v-12c.7,0,1.4.08,2.1.08a31.78,31.78,0,0,0,3.9-.24V65.77h2V53.31a25.53,25.53,0,0,0,8-2.82c4.17-2.38,6.47-5.62,6.45-9h0Zm-31.07-32A26.64,26.64,0,0,1,45.59,2,23.3,23.3,0,0,1,57.47,4.88c2.69,1.63,4.22,3.78,4.29,6,.07,2-1,3.94-2.92,5.66a8.44,8.44,0,0,0-3.65-4c-5.38-3.3-14.57-3.24-20.47.14a9.81,9.81,0,0,0-4.59,4.89,6.76,6.76,0,0,1-2.88-5.33C27.31,9.64,29.29,7,32.69,5.09ZM57.06,17.9c-.26.17-.51.33-.76.47-.45.26-.91.49-1.38.72l-.51.21c-.31.14-.62.28-.95.41l-.66.23-.86.3-.74.2-.83.23c-.27.07-.54.12-.8.17l-.82.18-.85.13c-.27,0-.53.09-.8.12l-.88.09-.78.07-.89,0-.78,0h-.88l-.78,0c-.29,0-.58,0-.87-.06l-.77-.05-.84-.11-.77-.1L38.05,21c-.25,0-.51-.09-.76-.15l-.77-.19-.74-.2-.72-.24L34.35,20l-.68-.28c-.23-.1-.46-.19-.68-.3s-.41-.22-.62-.33-.36-.18-.53-.28c.38-1.6,1.73-3.12,3.87-4.34,5.34-3.06,13.61-3.14,18.44-.17a6,6,0,0,1,3,3.58Zm-.75,30.86C49.15,52.85,38,53,31.53,49c-2.67-1.63-4.19-3.75-4.28-6h0V17.52a12.68,12.68,0,0,0,2.93,2.54l.05,0,.2.14.52-.86-.43.92a25.44,25.44,0,0,0,12.93,3.16,28.68,28.68,0,0,0,13.87-3.35c.5-.29,1-.6,1.51-1h0l.45-.32v0a13.84,13.84,0,0,0,2.49-2.38V40.71H61.7C62.12,43.63,60.15,46.56,56.31,48.76Z"/><path class="cls-1" d="M.91,45.45a.91.91,0,1,0,.91.91A.91.91,0,0,0,.91,45.45Z"/><circle class="cls-1" cx="9.35" cy="46.36" r="0.91"/><path class="cls-1" d="M18.25,45.45a.91.91,0,1,0,.91.91A.9.9,0,0,0,18.25,45.45Z"/><path class="cls-1" d="M4.89,51.57a.91.91,0,1,0,.91.91A.91.91,0,0,0,4.89,51.57Z"/><path class="cls-1" d="M13.34,51.57a.91.91,0,1,0,.91.91A.91.91,0,0,0,13.34,51.57Z"/><path class="cls-1" d="M22.24,51.57a.91.91,0,1,0,.91.91A.91.91,0,0,0,22.24,51.57Z"/><path class="cls-1" d="M.91,57.83a.91.91,0,1,0,.91.91A.91.91,0,0,0,.91,57.83Z"/><circle class="cls-1" cx="9.35" cy="58.74" r="0.91"/><path class="cls-1" d="M18.25,57.83a.91.91,0,1,0,.91.91A.9.9,0,0,0,18.25,57.83Z"/><path class="cls-1" d="M27.16,57.83a.91.91,0,1,0,.91.91A.91.91,0,0,0,27.16,57.83Z"/><path class="cls-1" d="M4.89,64a.91.91,0,1,0,.91.9A.9.9,0,0,0,4.89,64Z"/><circle class="cls-1" cx="13.34" cy="64.86" r="0.91"/><path class="cls-1" d="M22.24,64a.91.91,0,1,0,.91.9A.9.9,0,0,0,22.24,64Z"/><path class="cls-1" d="M87.19,45.45a.91.91,0,1,0,.9.91A.91.91,0,0,0,87.19,45.45Z"/><circle class="cls-1" cx="78.74" cy="46.36" r="0.91"/><path class="cls-1" d="M69.84,45.45a.91.91,0,1,0,.91.91A.91.91,0,0,0,69.84,45.45Z"/><path class="cls-1" d="M83.2,51.57a.91.91,0,1,0,.91.91A.91.91,0,0,0,83.2,51.57Z"/><path class="cls-1" d="M74.76,51.57a.91.91,0,1,0,.91.91A.91.91,0,0,0,74.76,51.57Z"/><path class="cls-1" d="M65.85,51.57a.91.91,0,1,0,.91.91A.9.9,0,0,0,65.85,51.57Z"/><path class="cls-1" d="M87.19,57.83a.91.91,0,1,0,.9.91A.91.91,0,0,0,87.19,57.83Z"/><circle class="cls-1" cx="78.74" cy="58.74" r="0.91"/><path class="cls-1" d="M69.84,57.83a.91.91,0,1,0,.91.91A.91.91,0,0,0,69.84,57.83Z"/><circle class="cls-1" cx="60.8" cy="58.74" r="0.91"/><circle class="cls-1" cx="83.2" cy="64.86" r="0.91"/><path class="cls-1" d="M74.76,64a.91.91,0,1,0,.91.9A.9.9,0,0,0,74.76,64Z"/><circle class="cls-1" cx="65.85" cy="64.86" r="0.91"/></g></g></svg>