<svg xmlns="http://www.w3.org/2000/svg" viewBox="0 0 41.14 38.6"><defs><style>.cls-1{fill:#15499b;}</style></defs><title>Zasób 10</title><g id="Warstwa_2" data-name="Warstwa 2"><g id="Warstwa_1-2" data-name="Warstwa 1"><path class="cls-1" d="M20.57,25A6.94,6.94,0,0,1,13.64,18c0-3.41,5.41-14.85,6-16.15L20.57,0l.9,1.89c.62,1.3,6,12.74,6,16.15A6.94,6.94,0,0,1,20.57,25Zm0-20.29C18.33,9.57,15.64,16.07,15.64,18a4.93,4.93,0,0,0,9.86,0C25.5,16.07,22.81,9.57,20.57,4.68Z"/><path class="cls-1" d="M6.93,38.6A6.93,6.93,0,0,1,0,31.67c0-3.4,5.41-14.85,6-16.14l.9-1.89.9,1.89c.62,1.29,6,12.74,6,16.14A6.93,6.93,0,0,1,6.93,38.6Zm0-20.28C4.69,23.21,2,29.71,2,31.67a4.93,4.93,0,1,0,9.86,0C11.86,29.71,9.17,23.21,6.93,18.32Z"/><path class="cls-1" d="M34.21,38.6a6.94,6.94,0,0,1-6.94-6.93c0-3.4,5.42-14.85,6-16.14l.91-1.89.9,1.89c.62,1.29,6,12.74,6,16.14A6.93,6.93,0,0,1,34.21,38.6Zm0-20.28C32,23.21,29.27,29.71,29.27,31.67a4.94,4.94,0,0,0,9.87,0C39.14,29.71,36.45,23.21,34.21,18.32Z"/></g></g></svg>