<svg xmlns="http://www.w3.org/2000/svg" viewBox="0 0 68.5 72.45"><defs><style>.cls-1{fill:#15499b;}</style></defs><title>Zasób 5</title><g id="Warstwa_2" data-name="Warstwa 2"><g id="Warstwa_1-2" data-name="Warstwa 1"><path class="cls-1" d="M20.2,31.85A11.67,11.67,0,1,1,31.87,20.19,11.58,11.58,0,0,1,20.2,31.85Zm0-21.33a9.68,9.68,0,0,0-9.66,9.67,9.66,9.66,0,0,0,9.66,9.66,9.67,9.67,0,1,0,0-19.33Z"/><path class="cls-1" d="M47.82,72.45a1.37,1.37,0,0,1-.77-.24,1.35,1.35,0,0,1-.44-1.7l6.58-13.42H47.5a1.36,1.36,0,0,1-1.15-.63,1.34,1.34,0,0,1-.06-1.3l8.19-16.69a1.36,1.36,0,0,1,1.21-.75h7.08A1.34,1.34,0,0,1,64,39.66l-4.71,9.59h7.89a1.33,1.33,0,0,1,1.23.81,1.36,1.36,0,0,1-.25,1.45L48.79,72A1.32,1.32,0,0,1,47.82,72.45Zm.73-17.36h5.7A1.33,1.33,0,0,1,55.45,57L50.32,67.49,65.63,51.25H58.21A1.34,1.34,0,0,1,57,49.32l4.71-9.59H56.09Z"/><rect class="cls-1" x="38.18" y="19.19" width="17.52" height="2"/><rect class="cls-1" x="31.51" y="3.1" width="9.59" height="2" transform="translate(7.74 26.87) rotate(-45)"/><rect class="cls-1" x="-0.7" y="35.29" width="9.59" height="2" transform="translate(-24.46 13.53) rotate(-45)"/><rect class="cls-1" x="19.2" y="38.16" width="2" height="17.52"/><rect class="cls-1" x="35.31" y="31.49" width="2" height="9.59" transform="translate(-15.02 36.3) rotate(-45)"/></g></g></svg>