<svg xmlns="http://www.w3.org/2000/svg" viewBox="0 0 47.21 44.02"><defs><style>.cls-1{fill:#15499b;}</style></defs><title>Zasób 16</title><g id="Warstwa_2" data-name="Warstwa 2"><g id="Warstwa_1-2" data-name="Warstwa 1"><polygon class="cls-1" points="0 43.87 0 31.3 8.01 31.3 8.01 33.1 2.1 33.1 2.1 36.55 6.66 36.56 6.66 38.37 2.1 38.36 2.1 42.06 8.01 42.07 8.01 43.88 0 43.87"/><path class="cls-1" d="M13.51,44a7.29,7.29,0,0,1-3.38-.91l.56-1.43a7.33,7.33,0,0,0,2.82.69c1.1,0,1.64-.45,1.64-1.39s-.94-1.18-1.94-1.5c-1.34-.43-2.86-.93-2.86-2.83s1.23-2.82,3.38-2.82a5.92,5.92,0,0,1,3.09.84l-.59,1.45a5.89,5.89,0,0,0-2.41-.64c-1,0-1.56.37-1.56,1.1s.86,1,1.84,1.34c1.4.46,3,1,3,2.88C17.08,43,16,44,13.51,44Z"/><path class="cls-1" d="M25.06,43.87c-.15-.29-.86-1.71-2.2-4.43l0-.06h-1v4.49h-2V30.38h2v7.36h.93l2.34-3.81,2.07,0-2.7,4.43,2.79,5.46Z"/><path class="cls-1" d="M33,44c-2.5,0-3.82-1.31-3.82-3.79V37.68c0-2.52,1.32-3.85,3.82-3.85s3.83,1.33,3.83,3.85v2.55C36.83,42.71,35.51,44,33,44Zm0-8.43c-1.3,0-1.83.63-1.83,2.18V40.1c0,1.53.55,2.18,1.83,2.18s1.84-.65,1.84-2.18V37.77C34.84,36.22,34.31,35.59,33,35.59Z"/><path class="cls-1" d="M45.22,43.87V37.75c0-1.36-.54-2-1.69-2a3,3,0,0,0-2,.85l0,7.27h-2V34h1.61l.22,1.18.13-.13a4,4,0,0,1,2.78-1.2c2.53,0,2.91,2.16,2.91,3.44v6.6Z"/><path class="cls-1" d="M6.52,2.51,0,6.27V18.81l10.86,6.27,6.52-3.76V8.78Zm4.34,20.07-8.69-5v-10l8.69,5Zm4.35-2.51L13,21.32v-10l-8.69-5L6.52,5l8.69,5Z"/><polygon class="cls-1" points="10.86 0 21.72 6.27 21.72 18.81 19.55 20.07 19.55 7.53 8.69 1.25 10.86 0"/></g></g></svg>