<svg xmlns="http://www.w3.org/2000/svg" viewBox="0 0 88.86 70.77"><defs><style>.cls-1{fill:#15499b;}</style></defs><title>Zasób 1</title><g id="Warstwa_2" data-name="Warstwa 2"><g id="Warstwa_1-2" data-name="Warstwa 1"><path class="cls-1" d="M88.85,31.14a.53.53,0,0,0,0-.12l0-.08a.52.52,0,0,0-.1-.11l0-.06L64,13,63.8,13,28.3.05h0l-.12,0L28,0h0L27.9,0l-.15,0-.1,0-.12.07,0,0L.17,24.78a.47.47,0,0,0-.17.35v43.3A.62.62,0,0,0,.65,69L58.3,70.77h0l.15,0,29.85-5.42a.58.58,0,0,0,.53-.52V31.16S88.85,31.15,88.85,31.14Zm-3.48-1.28-26.68-7L31.42,2.35,63.13,13.88ZM57.65,69.68,1.36,67.92V25.33l26.7-24L57.65,23.55ZM59,69.57V24.06L87.5,31.54V64.39Z"/><path class="cls-1" d="M84.29,43.27l-6-.68a.33.33,0,0,0-.17,0H78l-2.22-.25a.4.4,0,0,0-.27.06.23.23,0,0,0-.12.2V64.64a.29.29,0,0,0,.12.21.55.55,0,0,0,.22.06h.07L78,64.57a.47.47,0,0,0,.17,0,.39.39,0,0,0,.26-.11l5.93-.93a.28.28,0,0,0,.27-.26V43.54A.29.29,0,0,0,84.29,43.27Zm-8.19-.39,1.68.19v21l-1.68.27ZM83.9,63.1,78.46,64V43.15l5.44.61Z"/><path class="cls-1" d="M3.94,26.23l0,.05,0,.06a.61.61,0,0,0-.05.12.08.08,0,0,0,0,0v0s0,0,0,0V65.29a.61.61,0,0,0,.65.53l49.17,1.45h0a.78.78,0,0,0,.47-.15.5.5,0,0,0,.21-.38V24.89a.45.45,0,0,0-.2-.37L28.65,4.62a.88.88,0,0,0-.51-.16.74.74,0,0,0-.48.19Zm1.19,1,4,.45V64.9l-4-.12Zm47.81,14H34.64V14.8L52.77,28.72l.17.08Zm-19,0H16.44V29.92L34,14.88Zm-17.52.53H34V65.63l-17.52-.52Zm18.2,24v-24h18.3V66.19Zm18.3-38.29L34.77,13.42a1,1,0,0,0-.49-.15.75.75,0,0,0-.49.17L15.26,29.36a.45.45,0,0,0-.18.36V65.07l-4.61-.13V27.39L32.15,8.86,52.94,25.11ZM28.21,5.77l3,2.33L9.53,26.62l-3.76-.43Z"/></g></g></svg>