<svg xmlns="http://www.w3.org/2000/svg" viewBox="0 0 68.96 62.1"><defs><style>.cls-1{fill:#15499b;}</style></defs><title>Zasób 7</title><g id="Warstwa_2" data-name="Warstwa 2"><g id="Warstwa_1-2" data-name="Warstwa 1"><path class="cls-1" d="M68,49.21a14.05,14.05,0,0,1-6.36-1.65V14.69a13.78,13.78,0,0,1,6.15-1.78l1-.05V0l-1,0a27,27,0,0,0-19.06,8.7H20.33A26.93,26.93,0,0,0,1.27,0l-1,0V12.86l1,.05a14,14,0,0,1,6,1.7v33A14.06,14.06,0,0,1,1,49.21H0V62.1H1A26.94,26.94,0,0,0,22.38,51.17h24.2A27,27,0,0,0,68,62.09h1V49.22ZM17.75,34.89h0L13,30,23.8,18.68l1.7-1.78h0l1.41-1.47h15l2,2h0l10.46,11h0L55.82,30l-4.73,4.94h0l-1.47,1.54-7.69,8h-15l-5-5.22Zm-3.32-9.31L10.26,30,15,34.89h-.16l0,1A13.87,13.87,0,0,1,9.22,46.37V15.92A13.88,13.88,0,0,1,14.43,25.58ZM44.32,15l-1.53-1.6H26.05L24.6,15A26.83,26.83,0,0,0,22,10.73H47A26.33,26.33,0,0,0,44.32,15ZM26.05,46.47H42.79l.67-.71a28.2,28.2,0,0,0,1.76,3.41H23.74a26.72,26.72,0,0,0,1.73-3.31ZM58.58,30,54.5,25.69A13.9,13.9,0,0,1,59.62,16V46.28a13.91,13.91,0,0,1-5.44-10.44l0-1h-.28ZM49.81,10.39A25,25,0,0,1,66.72,2.08V11a16,16,0,0,0-14,12.85l-6.94-7.27A24.93,24.93,0,0,1,49.81,10.39ZM2.24,2.08a25,25,0,0,1,16.91,8.31,24.78,24.78,0,0,1,4,6.09l-1.91,2-5,5.24A15.87,15.87,0,0,0,8.74,13.15,16,16,0,0,0,2.24,11ZM2,60.06v-8.9a15.89,15.89,0,0,0,6.72-2.07,15.92,15.92,0,0,0,8-12.2h.18l.19.19L24,44.28a23.84,23.84,0,0,1-2.9,5.31A24.94,24.94,0,0,1,2,60.06Zm65,0A25,25,0,0,1,47.89,49.58,24,24,0,0,1,45,44.19l7-7.3h.3A16.07,16.07,0,0,0,67,51.16Z"/></g></g></svg>