<svg xmlns="http://www.w3.org/2000/svg" viewBox="0 0 47.21 13.64"><defs><style>.cls-1{fill:#fff;}</style></defs><title>Zasób 17</title><g id="Warstwa_2" data-name="Warstwa 2"><g id="Warstwa_1-2" data-name="Warstwa 1"><polygon class="cls-1" points="0 13.49 0 0.91 8.01 0.91 8.01 2.72 2.1 2.72 2.1 6.17 6.66 6.17 6.66 7.98 2.1 7.98 2.1 11.68 8.01 11.68 8.01 13.49 0 13.49"/><path class="cls-1" d="M13.51,13.64a7.42,7.42,0,0,1-3.38-.91l.56-1.43a7.52,7.52,0,0,0,2.82.69c1.1,0,1.64-.45,1.64-1.39s-.94-1.18-1.94-1.5c-1.34-.44-2.86-.93-2.86-2.83s1.23-2.82,3.38-2.82a5.92,5.92,0,0,1,3.09.84l-.59,1.45a5.93,5.93,0,0,0-2.41-.65c-1,0-1.56.38-1.56,1.11s.86,1,1.84,1.34c1.4.46,3,1,3,2.87C17.08,12.61,16,13.64,13.51,13.64Z"/><path class="cls-1" d="M25.06,13.49c-.15-.29-.86-1.72-2.2-4.43l0-.06h-1v4.49h-2V0h2V7.36h.93l2.34-3.81,2.07,0L24.42,8l2.79,5.46Z"/><path class="cls-1" d="M33,13.64c-2.5,0-3.82-1.31-3.82-3.79V7.29c0-2.51,1.32-3.84,3.82-3.84s3.83,1.33,3.83,3.84V9.85C36.83,12.33,35.51,13.64,33,13.64ZM33,5.2c-1.3,0-1.83.63-1.83,2.18V9.72c0,1.53.55,2.18,1.83,2.18s1.84-.65,1.84-2.18V7.38C34.84,5.83,34.31,5.2,33,5.2Z"/><path class="cls-1" d="M45.22,13.49V7.37c0-1.37-.54-2-1.69-2a3,3,0,0,0-2,.85l0,7.27h-2V3.6h1.61l.22,1.18.13-.14A4,4,0,0,1,44.3,3.45c2.53,0,2.91,2.16,2.91,3.44v6.6Z"/></g></g></svg>
