<svg xmlns="http://www.w3.org/2000/svg" viewBox="0 0 66.93 64.07"><defs><style>.cls-1{fill:#15499b;}</style></defs><title>Zasób 8</title><g id="Warstwa_2" data-name="Warstwa 2"><g id="Warstwa_1-2" data-name="Warstwa 1"><path class="cls-1" d="M58.73,9.5H33.1V0H16.89V9.5H8.2A8.21,8.21,0,0,0,0,17.7V51a8.21,8.21,0,0,0,8.2,8.2h3.09v4.85h7.6V59.22h29.7v4.85H56.2V59.22h2.53a8.21,8.21,0,0,0,8.2-8.2V17.7A8.21,8.21,0,0,0,58.73,9.5ZM18.89,2H31.1V9.5H18.89ZM8.2,57.22A6.21,6.21,0,0,1,2,51V17.7a6.21,6.21,0,0,1,6.2-6.2h8.69V57.22H8.2Zm8.69,4.85h-3.6V59.22h3.6Zm2-50.57h29.7V57.22H18.89ZM54.2,62.07H50.59V59.22H54.2ZM64.93,51a6.21,6.21,0,0,1-6.2,6.2H50.59V11.5h8.14a6.21,6.21,0,0,1,6.2,6.2Z"/></g></g></svg>