<svg xmlns="http://www.w3.org/2000/svg" viewBox="0 0 47.21 44.02">
  <path fill="#15499b" d="M0 43.87V31.3h8.01v1.8H2.1v3.45l4.56.01v1.81l-4.56-.01v3.7l5.91.01v1.81L0 43.87zM13.51 44a7.29 7.29 0 01-3.38-.91l.56-1.43a7.33 7.33 0 002.82.69c1.1 0 1.64-.45 1.64-1.39s-.94-1.18-1.94-1.5c-1.34-.43-2.86-.93-2.86-2.83s1.23-2.82 3.38-2.82a5.92 5.92 0 013.09.84l-.59 1.45a5.89 5.89 0 00-2.41-.64c-1 0-1.56.37-1.56 1.1s.86 1 1.84 1.34c1.4.46 3 1 3 2.88C17.08 43 16 44 13.51 44zM25.06 43.87c-.15-.29-.86-1.71-2.2-4.43v-.06h-1v4.49h-2V30.38h2v7.36h.93l2.34-3.81h2.07l-2.7 4.43 2.79 5.46zM33 44c-2.5 0-3.82-1.31-3.82-3.79v-2.53c0-2.52 1.32-3.85 3.82-3.85s3.83 1.33 3.83 3.85v2.55c0 2.48-1.32 3.77-3.83 3.77zm0-8.43c-1.3 0-1.83.63-1.83 2.18v2.35c0 1.53.55 2.18 1.83 2.18s1.84-.65 1.84-2.18v-2.33c0-1.55-.53-2.18-1.84-2.18zM45.22 43.87v-6.12c0-1.36-.54-2-1.69-2a3 3 0 00-2 .85v7.27h-2V34h1.61l.22 1.18.13-.13a4 4 0 012.78-1.2c2.53 0 2.91 2.16 2.91 3.44v6.6zM6.52 2.51L0 6.27v12.54l10.86 6.27 6.52-3.76V8.78zm4.34 20.07l-8.69-5v-10l8.69 5zm4.35-2.51L13 21.32v-10l-8.69-5L6.52 5l8.69 5z" class="cls-1"/>
  <path fill="#15499b" d="M10.86 0l10.86 6.27v12.54l-2.17 1.26V7.53L8.69 1.25 10.86 0z" class="cls-1"/>
</svg>
