<svg xmlns="http://www.w3.org/2000/svg" viewBox="0 0 47.21 13.64">
  <path fill="#FFFFFF" d="M0 13.49V.91h8.01v1.81H2.1v3.45h4.56v1.81H2.1v3.7h5.91v1.81H0zM13.51 13.64a7.42 7.42 0 01-3.38-.91l.56-1.43a7.52 7.52 0 002.82.69c1.1 0 1.64-.45 1.64-1.39s-.94-1.18-1.94-1.5c-1.34-.44-2.86-.93-2.86-2.83s1.23-2.82 3.38-2.82a5.92 5.92 0 013.09.84l-.59 1.45a5.93 5.93 0 00-2.41-.65c-1 0-1.56.38-1.56 1.11s.86 1 1.84 1.34c1.4.46 3 1 3 2.87-.02 2.2-1.1 3.23-3.59 3.23zM25.06 13.49c-.15-.29-.86-1.72-2.2-4.43V9h-1v4.49h-2V0h2v7.36h.93l2.34-3.81h2.07L24.42 8l2.79 5.46zM33 13.64c-2.5 0-3.82-1.31-3.82-3.79V7.29c0-2.51 1.32-3.84 3.82-3.84s3.83 1.33 3.83 3.84v2.56c0 2.48-1.32 3.79-3.83 3.79zm0-8.44c-1.3 0-1.83.63-1.83 2.18v2.34c0 1.53.55 2.18 1.83 2.18s1.84-.65 1.84-2.18V7.38c0-1.55-.53-2.18-1.84-2.18zM45.22 13.49V7.37c0-1.37-.54-2-1.69-2a3 3 0 00-2 .85v7.27h-2V3.6h1.61l.22 1.18.13-.14a4 4 0 012.81-1.19c2.53 0 2.91 2.16 2.91 3.44v6.6z"/>
</svg>
