<svg xmlns="http://www.w3.org/2000/svg" viewBox="0 0 12.895 12.895">
  <path fill="#FFFFFF" d="M12.456 11.018l.02-.02-.019.019zM12.456 8.901l-2.835-.794-.016.016-1.06 1.059-.015.018c-.439.439-1.526-.389-2.987-1.851s-2.289-2.548-1.85-2.987l.018-.015L4.77 3.288l.016-.016L3.991.438a1.5 1.5 0 00-2.116 0l.02-.02L.29 2.025c-.877.877.25 4.482 3.174 7.406s6.528 4.051 7.406 3.174l1.587-1.588a1.5 1.5 0 00-.001-2.116zm-.529 1.587l-1.587 1.588c-.585.585-3.716-.542-6.348-3.174S.233 3.139.818 2.554L2.405.967 2.4.974a.748.748 0 011.058 0l.535 2.032L2.9 4.101c-.586.586.36 2.027 2.114 3.782s3.2 2.7 3.782 2.114l1.092-1.096 2.032.535a.748.748 0 010 1.058z" />
</svg>
